<mxfile host="app.diagrams.net" modified="2021-10-19T11:11:11.127Z" agent="5.0 (Macintosh; Intel Mac OS X 10_15_7) AppleWebKit/537.36 (KHTML, like Gecko) Chrome/92.0.4515.107 Safari/537.36" etag="xXOvoUk9PW2tCzhG__1q" version="14.6.12" type="github">
  <diagram id="czw51Sg7TsgXnGgNCrx5" name="Page-1">
    <mxGraphModel dx="762" dy="1072" grid="1" gridSize="10" guides="1" tooltips="1" connect="1" arrows="1" fold="1" page="1" pageScale="1" pageWidth="1169" pageHeight="827" math="0" shadow="0">
      <root>
        <mxCell id="0" />
        <mxCell id="1" parent="0" />
        <mxCell id="lhk756wfKjSz0_gBeq0f-4" value="" style="rounded=0;whiteSpace=wrap;html=1;fillColor=#f5f5f5;strokeColor=#666666;fontColor=#333333;dashed=1;" vertex="1" parent="1">
          <mxGeometry x="230" y="160" width="270" height="340" as="geometry" />
        </mxCell>
        <mxCell id="lhk756wfKjSz0_gBeq0f-18" style="edgeStyle=orthogonalEdgeStyle;rounded=0;orthogonalLoop=1;jettySize=auto;html=1;exitX=1;exitY=0.25;exitDx=0;exitDy=0;entryX=0;entryY=0.5;entryDx=0;entryDy=0;fontFamily=Times New Roman;fontSize=17;fillColor=#f8cecc;strokeColor=#b85450;" edge="1" parent="1" source="lhk756wfKjSz0_gBeq0f-1" target="lhk756wfKjSz0_gBeq0f-9">
          <mxGeometry relative="1" as="geometry" />
        </mxCell>
        <mxCell id="lhk756wfKjSz0_gBeq0f-1" value="&lt;font style=&quot;font-size: 16px&quot; face=&quot;Times New Roman&quot;&gt;Custom CNN&lt;/font&gt;" style="rounded=1;whiteSpace=wrap;html=1;fillColor=#dae8fc;strokeColor=#6c8ebf;" vertex="1" parent="1">
          <mxGeometry x="260" y="210" width="210" height="60" as="geometry" />
        </mxCell>
        <mxCell id="lhk756wfKjSz0_gBeq0f-19" style="edgeStyle=orthogonalEdgeStyle;rounded=0;orthogonalLoop=1;jettySize=auto;html=1;exitX=1;exitY=0.25;exitDx=0;exitDy=0;entryX=0;entryY=0.5;entryDx=0;entryDy=0;fontFamily=Times New Roman;fontSize=17;fillColor=#f8cecc;strokeColor=#b85450;" edge="1" parent="1" source="lhk756wfKjSz0_gBeq0f-2" target="lhk756wfKjSz0_gBeq0f-9">
          <mxGeometry relative="1" as="geometry" />
        </mxCell>
        <mxCell id="lhk756wfKjSz0_gBeq0f-2" value="&lt;font style=&quot;font-size: 16px&quot; face=&quot;Times New Roman&quot;&gt;Pre-trained CNN&lt;br&gt;(VGG-19, Inception-ResNet)&lt;br&gt;&lt;/font&gt;" style="rounded=1;whiteSpace=wrap;html=1;fillColor=#dae8fc;strokeColor=#6c8ebf;" vertex="1" parent="1">
          <mxGeometry x="260" y="310" width="210" height="60" as="geometry" />
        </mxCell>
        <mxCell id="lhk756wfKjSz0_gBeq0f-3" value="&lt;font style=&quot;font-size: 16px&quot; face=&quot;Times New Roman&quot;&gt;Keypoint detection&lt;br&gt;(SIFT, SURF, ORB)&lt;br&gt;&lt;/font&gt;" style="rounded=1;whiteSpace=wrap;html=1;fillColor=#d5e8d4;strokeColor=#82b366;" vertex="1" parent="1">
          <mxGeometry x="260" y="413.5" width="210" height="60" as="geometry" />
        </mxCell>
        <mxCell id="lhk756wfKjSz0_gBeq0f-5" value="Feature extraction" style="text;html=1;strokeColor=none;fillColor=none;align=center;verticalAlign=middle;whiteSpace=wrap;rounded=0;dashed=1;fontSize=17;fontFamily=Times New Roman;" vertex="1" parent="1">
          <mxGeometry x="230" y="170" width="150" height="20" as="geometry" />
        </mxCell>
        <mxCell id="lhk756wfKjSz0_gBeq0f-6" value="&lt;font style=&quot;font-size: 16px&quot; face=&quot;Times New Roman&quot;&gt;kNN prediction&lt;br&gt;&lt;/font&gt;" style="rounded=1;whiteSpace=wrap;html=1;fillColor=#ffe6cc;strokeColor=#d79b00;" vertex="1" parent="1">
          <mxGeometry x="940" y="414" width="135" height="60" as="geometry" />
        </mxCell>
        <mxCell id="lhk756wfKjSz0_gBeq0f-7" value="" style="endArrow=classic;html=1;fontFamily=Times New Roman;fontSize=17;exitX=1;exitY=0.5;exitDx=0;exitDy=0;entryX=0;entryY=0.5;entryDx=0;entryDy=0;fillColor=#ffe6cc;strokeColor=#d79b00;edgeStyle=orthogonalEdgeStyle;rounded=0;" edge="1" parent="1" source="lhk756wfKjSz0_gBeq0f-3" target="lhk756wfKjSz0_gBeq0f-6">
          <mxGeometry width="50" height="50" relative="1" as="geometry">
            <mxPoint x="570" y="470" as="sourcePoint" />
            <mxPoint x="620" y="420" as="targetPoint" />
          </mxGeometry>
        </mxCell>
        <mxCell id="lhk756wfKjSz0_gBeq0f-21" style="edgeStyle=orthogonalEdgeStyle;rounded=0;orthogonalLoop=1;jettySize=auto;html=1;exitX=1;exitY=0.5;exitDx=0;exitDy=0;fontFamily=Times New Roman;fontSize=17;fillColor=#f8cecc;strokeColor=#b85450;" edge="1" parent="1" source="lhk756wfKjSz0_gBeq0f-9" target="lhk756wfKjSz0_gBeq0f-10">
          <mxGeometry relative="1" as="geometry" />
        </mxCell>
        <mxCell id="lhk756wfKjSz0_gBeq0f-9" value="&lt;font style=&quot;font-size: 16px&quot; face=&quot;Times New Roman&quot;&gt;FC (relu)&lt;br&gt;2048&lt;br&gt;&lt;/font&gt;" style="rounded=1;whiteSpace=wrap;html=1;fillColor=#f8cecc;strokeColor=#b85450;" vertex="1" parent="1">
          <mxGeometry x="585" y="210" width="135" height="60" as="geometry" />
        </mxCell>
        <mxCell id="lhk756wfKjSz0_gBeq0f-22" style="edgeStyle=orthogonalEdgeStyle;rounded=0;orthogonalLoop=1;jettySize=auto;html=1;exitX=1;exitY=0.5;exitDx=0;exitDy=0;entryX=0;entryY=0.5;entryDx=0;entryDy=0;fontFamily=Times New Roman;fontSize=17;fillColor=#f8cecc;strokeColor=#b85450;" edge="1" parent="1" source="lhk756wfKjSz0_gBeq0f-10" target="lhk756wfKjSz0_gBeq0f-11">
          <mxGeometry relative="1" as="geometry" />
        </mxCell>
        <mxCell id="lhk756wfKjSz0_gBeq0f-10" value="&lt;font style=&quot;font-size: 16px&quot; face=&quot;Times New Roman&quot;&gt;FC (sigmoid)&lt;br&gt;512&lt;br&gt;&lt;/font&gt;" style="rounded=1;whiteSpace=wrap;html=1;fillColor=#f8cecc;strokeColor=#b85450;" vertex="1" parent="1">
          <mxGeometry x="760" y="210" width="135" height="60" as="geometry" />
        </mxCell>
        <mxCell id="lhk756wfKjSz0_gBeq0f-11" value="&lt;font style=&quot;font-size: 16px&quot; face=&quot;Times New Roman&quot;&gt;FC&lt;br&gt;2&lt;br&gt;&lt;/font&gt;" style="rounded=1;whiteSpace=wrap;html=1;fillColor=#f8cecc;strokeColor=#b85450;" vertex="1" parent="1">
          <mxGeometry x="940" y="210" width="135" height="60" as="geometry" />
        </mxCell>
        <mxCell id="lhk756wfKjSz0_gBeq0f-16" style="edgeStyle=orthogonalEdgeStyle;rounded=0;orthogonalLoop=1;jettySize=auto;html=1;exitX=1;exitY=0.5;exitDx=0;exitDy=0;entryX=0;entryY=0.5;entryDx=0;entryDy=0;fontFamily=Times New Roman;fontSize=17;fillColor=#ffe6cc;strokeColor=#d79b00;" edge="1" parent="1" source="lhk756wfKjSz0_gBeq0f-12" target="lhk756wfKjSz0_gBeq0f-13">
          <mxGeometry relative="1" as="geometry" />
        </mxCell>
        <mxCell id="lhk756wfKjSz0_gBeq0f-12" value="&lt;font style=&quot;font-size: 16px&quot; face=&quot;Times New Roman&quot;&gt;FC (relu)&lt;br&gt;2048&lt;br&gt;&lt;/font&gt;" style="rounded=1;whiteSpace=wrap;html=1;fillColor=#ffe6cc;strokeColor=#d79b00;" vertex="1" parent="1">
          <mxGeometry x="585" y="320" width="135" height="60" as="geometry" />
        </mxCell>
        <mxCell id="lhk756wfKjSz0_gBeq0f-17" style="edgeStyle=orthogonalEdgeStyle;rounded=0;orthogonalLoop=1;jettySize=auto;html=1;exitX=1;exitY=0.5;exitDx=0;exitDy=0;entryX=0;entryY=0.5;entryDx=0;entryDy=0;fontFamily=Times New Roman;fontSize=17;fillColor=#ffe6cc;strokeColor=#d79b00;" edge="1" parent="1" source="lhk756wfKjSz0_gBeq0f-13" target="lhk756wfKjSz0_gBeq0f-6">
          <mxGeometry relative="1" as="geometry" />
        </mxCell>
        <mxCell id="lhk756wfKjSz0_gBeq0f-13" value="&lt;font style=&quot;font-size: 16px&quot; face=&quot;Times New Roman&quot;&gt;FC (sigmoid)&lt;br&gt;512&lt;br&gt;&lt;/font&gt;" style="rounded=1;whiteSpace=wrap;html=1;fillColor=#ffe6cc;strokeColor=#d79b00;" vertex="1" parent="1">
          <mxGeometry x="760" y="320" width="135" height="60" as="geometry" />
        </mxCell>
        <mxCell id="lhk756wfKjSz0_gBeq0f-14" value="" style="endArrow=classic;html=1;fontFamily=Times New Roman;fontSize=17;entryX=0;entryY=0.5;entryDx=0;entryDy=0;fillColor=#ffe6cc;strokeColor=#d79b00;edgeStyle=orthogonalEdgeStyle;rounded=0;" edge="1" parent="1" target="lhk756wfKjSz0_gBeq0f-12">
          <mxGeometry width="50" height="50" relative="1" as="geometry">
            <mxPoint x="470" y="350" as="sourcePoint" />
            <mxPoint x="750" y="454" as="targetPoint" />
          </mxGeometry>
        </mxCell>
        <mxCell id="lhk756wfKjSz0_gBeq0f-15" value="" style="endArrow=classic;html=1;fontFamily=Times New Roman;fontSize=17;entryX=0;entryY=0.5;entryDx=0;entryDy=0;fillColor=#ffe6cc;strokeColor=#d79b00;edgeStyle=orthogonalEdgeStyle;rounded=0;exitX=1;exitY=0.75;exitDx=0;exitDy=0;" edge="1" parent="1" source="lhk756wfKjSz0_gBeq0f-1" target="lhk756wfKjSz0_gBeq0f-12">
          <mxGeometry width="50" height="50" relative="1" as="geometry">
            <mxPoint x="480" y="350" as="sourcePoint" />
            <mxPoint x="595" y="350" as="targetPoint" />
            <Array as="points">
              <mxPoint x="550" y="255" />
              <mxPoint x="550" y="350" />
            </Array>
          </mxGeometry>
        </mxCell>
      </root>
    </mxGraphModel>
  </diagram>
</mxfile>
